<svg width="24" height="24" viewBox="0 0 24 24" fill="none" xmlns="http://www.w3.org/2000/svg">
<g clip-path="url(#clip0_168_50937)">
<path fill-rule="evenodd" clip-rule="evenodd" d="M18.3202 16.9052C19.1802 15.7987 19.756 14.4605 19.9381 13H14.415L18.3202 16.9052ZM16.9061 18.3195C15.7995 19.1799 14.4609 19.7559 13 19.9381V14.4134L16.9061 18.3195ZM11 9.58497V4.06189C9.53949 4.24402 8.20125 4.81983 7.09482 5.67978L11 9.58497ZM5.6805 7.09389L9.58661 11H4.06189C4.24407 9.53909 4.82015 8.20051 5.6805 7.09389ZM19.9381 11H15.1417L18.626 7.51568C19.3166 8.53407 19.7785 9.72009 19.9381 11ZM17.3031 6.01013L13 10.3132V4.06189C14.6403 4.26644 16.1264 4.96758 17.3031 6.01013ZM4.06189 13H10.3132L6.01013 17.3031C4.96758 16.1264 4.26644 14.6403 4.06189 13ZM11 15.1417L7.51568 18.626C8.53407 19.3166 9.72009 19.7785 11 19.9381V15.1417ZM12 22C17.5228 22 22 17.5228 22 12C22 6.47715 17.5228 2 12 2C6.47715 2 2 6.47715 2 12C2 17.5228 6.47715 22 12 22Z" fill="#253858"/>
</g>
<defs>
<clipPath id="clip0_168_50937">
<rect width="24" height="24" fill="white"/>
</clipPath>
</defs>
</svg>
