<svg width="40" height="40" viewBox="0 0 40 40" fill="none" xmlns="http://www.w3.org/2000/svg">
<g clip-path="url(#clip0_6_42)">
<path d="M40 20.1225C40 9.0075 31.045 -0.00250244 20 -0.00250244C8.94999 -2.44129e-06 -0.00500488 9.0075 -0.00500488 20.125C-0.00500488 30.1675 7.31 38.4925 16.87 40.0025V25.94H11.795V20.125H16.875V15.6875C16.875 10.645 19.8625 7.86 24.43 7.86C26.62 7.86 28.9075 8.2525 28.9075 8.2525V13.2025H26.385C23.9025 13.2025 23.1275 14.755 23.1275 16.3475V20.1225H28.6725L27.7875 25.9375H23.125V40C32.685 38.49 40 30.165 40 20.1225Z" fill="white"/>
</g>
<defs>
<clipPath id="clip0_6_42">
<rect width="40" height="40" fill="white"/>
</clipPath>
</defs>
</svg>
