<svg width="100" height="100" viewBox="0 0 100 100" fill="none" xmlns="http://www.w3.org/2000/svg">
<rect x="4" y="4" width="92" height="92" rx="16" fill="#FF97D9"/>
<path d="M21 33.312L21.312 33H41.352C41.448 33.48 41.504 33.936 41.52 34.368C41.536 34.784 41.544 35.176 41.544 35.544C41.544 35.912 41.504 36.36 41.424 36.888C41.344 37.416 41.216 37.928 41.04 38.424H30.48H28.92C28.3943 38.4112 27.8583 38.3984 27.3121 38.3855C27.3129 39.0125 27.3208 39.5533 27.336 40.008C27.352 40.488 27.36 41.056 27.36 41.712V46.6705C27.8897 46.6608 28.4097 46.656 28.92 46.656C29.576 46.64 30.096 46.632 30.48 46.632H38.616C38.744 47.032 38.832 47.488 38.88 48C38.944 48.496 38.976 48.92 38.976 49.272C38.976 49.64 38.944 50.072 38.88 50.568C38.832 51.048 38.744 51.496 38.616 51.912H30.48H28.92C28.4097 51.8996 27.8897 51.8919 27.36 51.8892V57.576C27.36 58.104 27.352 58.592 27.336 59.04C27.32 59.472 27.312 59.968 27.312 60.528V60.5536L27.768 60.528C28.632 60.48 29.6 60.456 30.672 60.456H42.408C42.408 62.296 42.12 63.664 41.544 64.56C40.984 65.44 39.864 65.88 38.184 65.88H27.312H25.128H24.696C23.544 65.88 22.64 65.536 21.984 64.848C21.328 64.16 21 63.224 21 62.04V33.312Z" fill="white"/>
<path d="M48.544 33.288C49.232 33.176 49.992 33.104 50.824 33.072C51.656 33.024 52.344 33 52.888 33C53.448 33 54.096 33.024 54.832 33.072C55.568 33.104 56.28 33.176 56.968 33.288L60.64 46.608C60.736 46.944 60.864 47.464 61.024 48.168C61.2 48.872 61.384 49.648 61.576 50.496C61.768 51.344 61.944 52.16 62.104 52.944C62.28 53.728 62.4 54.352 62.464 54.816H62.776C62.856 54.352 62.976 53.728 63.136 52.944C63.312 52.16 63.496 51.344 63.688 50.496C63.88 49.648 64.064 48.872 64.24 48.168C64.416 47.464 64.544 46.944 64.624 46.608L68.296 33.288C69.016 33.176 69.736 33.104 70.456 33.072C71.176 33.024 71.816 33 72.376 33C72.936 33 73.624 33.024 74.44 33.072C75.256 33.104 76.016 33.176 76.72 33.288L79.264 65.976C78.8 66.088 78.264 66.168 77.656 66.216C77.064 66.28 76.512 66.312 76 66.312C75.504 66.312 75.024 66.296 74.56 66.264C74.096 66.232 73.624 66.176 73.144 66.096L72.232 50.712C72.184 49.704 72.128 48.584 72.064 47.352C72.016 46.104 71.968 44.864 71.92 43.632C71.888 42.4 71.864 41.288 71.848 40.296H71.56L65.92 61.128C65.44 61.208 64.88 61.272 64.24 61.32C63.616 61.352 63.072 61.368 62.608 61.368C62.176 61.368 61.64 61.352 61 61.32C60.36 61.272 59.8 61.208 59.32 61.128L53.704 40.296H53.416C53.4 41.288 53.368 42.4 53.32 43.632C53.288 44.864 53.248 46.104 53.2 47.352C53.152 48.584 53.096 49.704 53.032 50.712L52.096 66.096C51.632 66.176 51.16 66.232 50.68 66.264C50.2 66.296 49.72 66.312 49.24 66.312C48.728 66.312 48.168 66.28 47.56 66.216C46.968 66.168 46.448 66.088 46 65.976L48.544 33.288Z" fill="white"/>
<rect x="4" y="4" width="92" height="92" rx="16" stroke="white" stroke-width="8"/>
</svg>
